<?xml version="1.0" encoding="UTF-8" standalone="no"?>
<svg
   xmlns:dc="http://purl.org/dc/elements/1.1/"
   xmlns:cc="http://creativecommons.org/ns#"
   xmlns:rdf="http://www.w3.org/1999/02/22-rdf-syntax-ns#"
   xmlns:svg="http://www.w3.org/2000/svg"
   xmlns="http://www.w3.org/2000/svg"
   viewBox="0 0 200 200"
   width="200px"
   height="200px"
   version="1.1"
   id="svg43">
  <title
     id="title1068">Emotion Time - joy - female</title>
  <metadata
     id="metadata49">
    <rdf:RDF>
      <cc:Work
         rdf:about="">
        <dc:format>image/svg+xml</dc:format>
        <dc:type
           rdf:resource="http://purl.org/dc/dcmitype/StillImage" />
        <dc:title>Emotion Time - joy - female</dc:title>
        <cc:license
           rdf:resource="http://creativecommons.org/licenses/by-sa/4.0/" />
        <dc:creator>
          <cc:Agent>
            <dc:title>SunnyBlvck</dc:title>
          </cc:Agent>
        </dc:creator>
      </cc:Work>
      <cc:License
         rdf:about="http://creativecommons.org/licenses/by-sa/4.0/">
        <cc:permits
           rdf:resource="http://creativecommons.org/ns#Reproduction" />
        <cc:permits
           rdf:resource="http://creativecommons.org/ns#Distribution" />
        <cc:requires
           rdf:resource="http://creativecommons.org/ns#Notice" />
        <cc:requires
           rdf:resource="http://creativecommons.org/ns#Attribution" />
        <cc:permits
           rdf:resource="http://creativecommons.org/ns#DerivativeWorks" />
        <cc:requires
           rdf:resource="http://creativecommons.org/ns#ShareAlike" />
      </cc:License>
    </rdf:RDF>
  </metadata>
  <defs
     id="defs47" />
  <g
     id="g10"
     transform="matrix(1.400423, 0, 0, 1.377204, -1.223295, 0.05797)"
     style="stroke-width:0.720065">
    <path
       style="fill:#000000;fill-opacity:1;stroke:none;stroke-width:0.720065px;stroke-linecap:butt;stroke-linejoin:miter;stroke-opacity:1"
       d="m 27.941625,-0.08772978 c 0,0 -19.473227,17.79854378 -16.829453,54.00558578 1.376192,18.847239 3.777107,28.810681 3.777107,28.810681 l -0.394442,62.395473 119.383183,0.13641 0.0514,-67.964821 -1.43498,-25.821086 c 0,0 -0.66006,-21.74436 -4.16387,-31.868203 -2.48182,-7.170939 -5.8694,-13.9360103 -11.76472,-19.69672626 z"
       id="path839" />
    <path
       style="fill:#fdceb0;fill-opacity:1;stroke:none;stroke-width:0.360032;stroke-linecap:butt;stroke-linejoin:miter;stroke-miterlimit:4;stroke-dasharray:0.360032, 0.720065;stroke-dashoffset:0;stroke-opacity:1"
       d="m 21.207,26.386 c -5.006,6.824 -5.406,26.474 -5.406,26.474 1.093,41.554 22.264,65.117 60.19,66.996 21.111,0.49 46.295,-7.46 50.01,-34.352 0.429,-3.104 1.372,-43.272 1.372,-43.272 0,0 -18.452,-9.12 -23.952,-30.706 -37.02,26.631 -78.352,19.361 -82.214,14.86 z"
       id="path14" />
    <path
       style="fill:#000000;fill-opacity:1;stroke:none;stroke-width:0.360032;stroke-linecap:butt;stroke-linejoin:miter;stroke-miterlimit:4;stroke-dasharray:none;stroke-opacity:1"
       d="m 63.943099,75.416925 c 0,0 10.12599,5.566069 24.764698,0.46116 3.357974,9.202594 -1.121405,27.600055 -12.506655,27.490345 C 65.508847,103.2654 61.71007,83.677212 63.943099,75.416922 Z"
       id="path871" />
    <path
       style="fill:#000000;fill-opacity:1;stroke:none;stroke-width:0.21602;stroke-linecap:butt;stroke-linejoin:miter;stroke-miterlimit:4;stroke-dasharray:none;stroke-opacity:1"
       d="m 65.362653,78.019387 22.72378,0.319549 0.56879,2.96213 c -9.163187,0.05408 -27.395074,14.695467 -23.29257,-3.281679"
       id="path917" />
    <path
       style="fill:#ffffff;fill-opacity:1;stroke:none;stroke-width:0.720065px;stroke-linecap:butt;stroke-linejoin:miter;stroke-opacity:1"
       d="m 65.009225,77.727971 c 10.210899,2.998599 17.782843,1.449696 22.73163,0.180131 0.04547,0.1163 -10.420528,12.166907 -22.73163,-0.180131 z"
       id="path875" />
    <path
       style="fill:#820006;fill-opacity:1;stroke:none;stroke-width:0.144012;stroke-linecap:butt;stroke-linejoin:miter;stroke-miterlimit:4;stroke-dasharray:none;stroke-opacity:1"
       d="m 64.748685,79.886408 c 0,0 0.268508,8.6138 1.888198,12.629959 1.6197,4.016158 6.0029,9.915623 10.19039,8.991933 4.18749,-0.92369 5.72418,-1.06975 9.76483,-9.081839 2.56073,-5.077599 1.614238,-12.445002 1.614238,-12.445002 C 75.7609,90.782968 64.748685,79.886408 64.748685,79.886408 Z"
       id="path921" />
    <path
       style="fill:#ea6280;fill-opacity:1;stroke:none;stroke-width:0.720065px;stroke-linecap:butt;stroke-linejoin:miter;stroke-opacity:1"
       d="m 66.396973,91.859002 c 0,0 9.91435,-8.341992 20.31314,0.06035 -2.94748,8.670568 -9.53602,12.095158 -15.20061,7.873263 -4.34885,-4.09368 -5.11253,-7.933616 -5.11253,-7.933616 z"
       id="path919" />
    <circle
       style="fill:#ea5f8a;fill-opacity:1;stroke:none;stroke-width:0.144012;stroke-miterlimit:4;stroke-dasharray:none;stroke-dashoffset:0;stroke-opacity:1"
       id="path923"
       cx="0"
       cy="0"
       r="0" />
    <circle
       style="fill:#ea5f8a;fill-opacity:1;stroke:none;stroke-width:0.144012;stroke-miterlimit:4;stroke-dasharray:none;stroke-dashoffset:0;stroke-opacity:1"
       id="path923-3"
       cx="0"
       cy="0"
       r="0" />
    <path
       style="fill:#000000;fill-opacity:1;stroke:none;stroke-width:0.0720065;stroke-linecap:butt;stroke-linejoin:miter;stroke-miterlimit:4;stroke-dasharray:none;stroke-opacity:1"
       d="m 42.917769,51.816893 -2.77965,4.684119 c 0,0 -9.56882,-1.957693 -7.10328,-4.515138 3.3476,-3.472382 9.88293,-0.168981 9.88293,-0.168981 z"
       id="path18" />
    <path
       style="fill:#000000;fill-opacity:1;stroke:none;stroke-width:0.0720065;stroke-linecap:butt;stroke-linejoin:miter;stroke-miterlimit:4;stroke-dasharray:none;stroke-opacity:1"
       d="m 39.805459,57.767501 c 0,0 -1.33658,-1.091849 -2.5729,-0.957127 -3.44822,0.375754 -3.13839,1.950664 -3.13839,1.950664 0,0 1.34314,2.606108 5.69388,1.747273 z"
       id="path843" />
    <path
       style="fill:#000000;fill-opacity:1;stroke:none;stroke-width:0.0720065;stroke-linecap:butt;stroke-linejoin:miter;stroke-miterlimit:4;stroke-dasharray:none;stroke-opacity:1"
       d="m 39.700389,63.75071 c 0,0 10.26524,-3.915173 21.00124,-0.7421 2.88892,-8.220307 -5.61234,-15.794453 -11.49403,-14.856453 -13.95974,2.22627 -9.50721,15.598553 -9.50721,15.598553 z"
       id="path845" />
    <circle
       style="fill:#ffffff;fill-opacity:1;stroke:none;stroke-width:0.0720062;stroke-miterlimit:4;stroke-dasharray:none;stroke-opacity:1"
       id="path847"
       cx="0"
       cy="0"
       r="0" />
    <circle
       style="fill:#ffffff;fill-opacity:1;stroke:none;stroke-width:0.0720063;stroke-miterlimit:4;stroke-dasharray:none;stroke-opacity:1"
       id="path849"
       cx="0"
       cy="0"
       r="0" />
    <path
       style="fill:#000000;fill-opacity:1;stroke:none;stroke-width:0.0720065;stroke-linecap:butt;stroke-linejoin:miter;stroke-miterlimit:4;stroke-dasharray:none;stroke-opacity:1"
       d="m 88.528459,63.209302 c 0,0 -3.90491,-13.242324 9.26567,-14.711016 15.128101,0.68192 10.933091,15.228149 10.933091,15.228149 0,0 -9.489081,-4.383358 -20.198761,-0.517133 z"
       id="path874" />
    <circle
       style="fill:#ffffff;fill-opacity:1;stroke:none;stroke-width:0.0720062;stroke-miterlimit:4;stroke-dasharray:none;stroke-opacity:1"
       id="path847-3"
       cx="0"
       cy="0"
       r="0" />
    <circle
       style="fill:#ffffff;fill-opacity:1;stroke:none;stroke-width:0.0720063;stroke-miterlimit:4;stroke-dasharray:none;stroke-opacity:1"
       id="path849-6"
       cx="0"
       cy="0"
       r="0" />
    <path
       style="fill:#000000;fill-opacity:1;stroke:none;stroke-width:0.0720065;stroke-linecap:butt;stroke-linejoin:miter;stroke-miterlimit:4;stroke-dasharray:none;stroke-opacity:1"
       d="m 32.308399,41.797985 c 0,0 13.59489,-14.586907 32.13653,-2.8165 l -3.247476,2.488231 c 0,0 -13.208104,-5.911412 -28.889054,0.328264 z"
       id="path869" />
    <path
       style="fill:#000000;fill-opacity:1;stroke:none;stroke-width:0.0720065;stroke-linecap:butt;stroke-linejoin:miter;stroke-miterlimit:4;stroke-dasharray:none;stroke-opacity:1"
       d="m 82.117139,39.114762 c 0,0 16.36144,-12.437184 33.251351,2.61121 -16.530261,-5.935937 -30.241009,0.04875 -30.241009,0.04875 z"
       id="path872" />
    <path
       style="fill:#000000;fill-opacity:1;stroke:none;stroke-width:0.0720065;stroke-linecap:butt;stroke-linejoin:miter;stroke-miterlimit:4;stroke-dasharray:none;stroke-opacity:1"
       d="m 105.4313,52.45511 c 0,0 -0.17166,-0.756606 3.36905,-1.293654 6.32157,-0.958844 6.51406,1.748152 6.51406,1.748152 0,0 0.92127,1.435913 -3.12045,3.131066 -1.95483,0.819885 -3.56329,0.742795 -4.09228,0.582043 -0.52898,-0.160753 -2.67038,-4.167607 -2.67038,-4.167607 z"
       id="path876" />
    <path
       style="fill:#000000;fill-opacity:1;stroke:none;stroke-width:0.0720065;stroke-linecap:butt;stroke-linejoin:miter;stroke-miterlimit:4;stroke-dasharray:none;stroke-opacity:1"
       d="m 108.64442,57.60399 c 0,0 0.97459,-0.14903 3.28407,-0.03618 1.82672,0.08926 2.06964,1.626205 2.06964,1.626205 0,0 -0.57665,1.332443 -2.2066,1.657234 -1.69192,0.337139 -2.63868,0.6373 -3.03608,0.274567 -0.3974,-0.362733 -0.11105,-3.521829 -0.11105,-3.521829 z"
       id="path878" />
    <path
       style="fill:#fe88ac;fill-opacity:1;stroke:none;stroke-width:0.0720065;stroke-linecap:butt;stroke-linejoin:miter;stroke-miterlimit:4;stroke-dasharray:none;stroke-opacity:1"
       d="m 47.779514,145.1824 c 0,0 5.559439,-5.93577 12.753499,-6.98939 3.9061,2.9701 12.9153,10.08672 32.23841,0.65753 4.9095,1.04859 9.688507,6.35906 9.688507,6.35906 z"
       id="path946" />
    <path
       style="fill:#f9d2b4;fill-opacity:1;stroke:none;stroke-width:0.0720065;stroke-linecap:butt;stroke-linejoin:miter;stroke-miterlimit:4;stroke-dasharray:none;stroke-opacity:1"
       d="m 65.891043,137.48998 c 0,0 2.735,-1.49063 3.37201,-4.71915 0.009,-2.13971 -0.149808,-8.62484 -0.149808,-8.62484 0,0 7.647807,0.70147 13.400847,0.0367 l 0.19701,9.71311 c 0,0 -0.076,2.69338 3.15581,4.25711 -11.66587,4.57952 -19.97552,-0.66319 -19.97552,-0.66319 z"
       id="path948" />
    <path
       style="fill:#d8927c;fill-opacity:1;stroke:none;stroke-width:0.0720065;stroke-linecap:butt;stroke-linejoin:miter;stroke-miterlimit:4;stroke-dasharray:none;stroke-opacity:1"
       d="m 69.113245,124.14599 2.924442,0.19942 -0.111234,8.76717 c 0,0 -0.36231,3.26082 -3.50772,5.51342 l -2.52734,-1.13599 c 0,0 3.36956,-2.78586 3.37166,-4.71915 z"
       id="path950" />
    <path
       style="fill:#000000;fill-opacity:1;stroke:none;stroke-width:0.0720065;stroke-linecap:butt;stroke-linejoin:miter;stroke-miterlimit:4;stroke-dasharray:none;stroke-opacity:1"
       d="m 131.846,50.90367 c 12.42434,6.514035 11.65007,23.619895 -0.57298,28.663855 z"
       id="path977" />
    <path
       style="fill:#ffcaa9;fill-opacity:1;stroke:none;stroke-width:0.720065px;stroke-linecap:butt;stroke-linejoin:miter;stroke-opacity:1"
       d="m 132.00374,73.691447 0.65646,-17.283292 c 0.41614,0.05424 10.20098,9.696514 -0.65646,17.283292 z"
       id="path979" />
    <path
       style="fill:#000000;fill-opacity:1;stroke:none;stroke-width:0.0720065;stroke-linecap:butt;stroke-linejoin:miter;stroke-miterlimit:4;stroke-dasharray:none;stroke-opacity:1;image-rendering:auto"
       d="m 12.631172,52.98579 4.0973,29.811302 c -5.41203,1.873526 -23.6002903,-16.440279 -4.0973,-29.811302 z"
       id="path983" />
    <path
       style="fill:#ffd7bd;fill-opacity:1;stroke:none;stroke-width:0.720065px;stroke-linecap:butt;stroke-linejoin:miter;stroke-opacity:1"
       d="m 11.448428,59.365522 2.791004,18.386354 C 14.131101,77.675442 2.47842,68.919365 11.448428,59.365522 Z"
       id="path985" />
  </g>
  <circle
     style="fill:#ffffff"
     cx="323.526"
     cy="130.82201"
     r="4.5700002"
     transform="matrix(0.868945, 0, 0, 0.90895, 75.421792, 81.118002)"
     id="circle368" />
  <ellipse
     style="fill:#ffffff;stroke-width:0.888721"
     cx="-72.900146"
     cy="77.50386"
     id="circle376"
     rx="5.5380001"
     ry="5.7210002"
     transform="scale(-1,1)" />
  <ellipse
     style="fill:#ffffff;stroke-width:0.888721"
     cx="-140.87845"
     cy="77.209068"
     id="circle378"
     rx="5.5380001"
     ry="5.7210002"
     transform="scale(-1,1)" />
  <ellipse
     style="fill:#ffffff;stroke-width:0.790587"
     cx="-128.01445"
     cy="80.209068"
     id="circle380"
     rx="2.5280001"
     ry="2.5999999"
     transform="scale(-1,1)" />
  <ellipse
     style="fill:#ffffff;stroke-width:0.865047"
     cx="-60.604145"
     cy="80.773865"
     id="circle382"
     rx="2.7980001"
     ry="2.813"
     transform="scale(-1,1)" />
  <path
     style="fill:#d19477;fill-opacity:1;stroke:none;stroke-width:0.5;stroke-linecap:butt;stroke-linejoin:miter;stroke-miterlimit:4;stroke-dasharray:none;stroke-opacity:1"
     d="M 101.908 165.031 C 101.908 165.031 55.384 163.825 42.504 99.049 C 34.911 60.866 42.386 41.46 42.386 41.46 C 35.396 39.729 33.512 39.221 28.767 36.486 C 18.533 49.967 19.458 91.259 27.943 114.343 C 39.42 145.564 65.391 163.6 101.908 165.031 Z"
     id="path1042" />
  <circle
     style="fill:#ff4589;fill-opacity:1;stroke-width:0.5"
     id="path51-7"
     d="m 60.707167,113.18703 a 9.6175308,9.163187 0 0 1 -10.850908,7.26107 9.6175308,9.163187 0 0 1 -8.149628,-9.96565 9.6175308,9.163187 0 0 1 10.042937,-8.24909 9.6175308,9.163187 0 0 1 9.145306,9.14782"
     transform="matrix(1, 0, 0, 1, 25.371713, 53.188854)" />
  <circle
     style="fill:#ff4589;fill-opacity:1;stroke-width:0.5"
     id="path51-3-5"
     d="m 162.96031,113.58218 a 9.6175308,9.163187 0 0 1 -10.85091,7.26107 9.6175308,9.163187 0 0 1 -8.14963,-9.96565 9.6175308,9.163187 0 0 1 10.04294,-8.24909 9.6175308,9.163187 0 0 1 9.14531,9.14782"
     transform="matrix(1, 0, 0, 1, 25.371713, 53.188854)" />
  <circle
     style="fill: rgb(255, 91, 135);"
     cx="51.448"
     cy="111.013"
     r="9.705"
     id="circle39" />
  <circle
     style="fill: rgb(255, 91, 135);"
     cx="151.432"
     cy="110.992"
     r="9.705"
     id="circle41" />
</svg>
