<svg xmlns="http://www.w3.org/2000/svg" viewBox="0 0 136 146"><title>StatementAvatarLaptop</title><path d="M35.05,29.46A10.43,10.43,0,0,1,45.39,19H62.23c5.68,0,10.34,4.71,10.34,7.58,0,0,0,2.88.48,8.6a91.93,91.93,0,0,1,.48,11.55,19.72,19.72,0,1,1-39.44,0c0-3.89,1-17.27,1-17.27M5.65,146.29l3.42-33.4c1.93-13.83,4.22-26.36,14-34.66,2.35-2,9.1-5.23,17.4-5.23h26.7c8.29,0,13,3.23,15.39,5.23a45.32,45.32,0,0,1,16,34.66v33.4" fill="#60257f" stroke="#fff" stroke-miterlimit="10" stroke-width="3"/><path d="M119.75,139H36.6c-1.53,0-2.77,1.56-2.77,3.49v2c0,1.93,1.24,3.49,2.77,3.49h83.15c1.53,0,2.77-1.56,2.77-3.49v-2c0-1.93-1.24-3.49-2.77-3.49" fill="#60257f" stroke="#fff" stroke-miterlimit="10" stroke-width="3"/><path d="M62.43,90.89l65.56,0a5.36,5.36,0,0,1,5.38,6.27l-5,38.32a7.32,7.32,0,0,1-7,6.27l-65.56,0a5.36,5.36,0,0,1-5.38-6.27l5-38.32a7.31,7.31,0,0,1,7-6.27" fill="#60257f" stroke="#fff" stroke-miterlimit="10" stroke-width="3"/></svg>